<svg xmlns="http://www.w3.org/2000/svg" viewBox="2 1 1095.08 695.25">
<circle cx="948.79" cy="447.92" r="45" fill="#f2cc8f"/>
<circle cx="1050.08" cy="346.6" r="45" fill="#f2cc8f"/>
<circle cx="948.79" cy="248.51" r="45" fill="#f2cc8f"/>
<circle cx="848.92" cy="548.27" r="45" fill="#f2cc8f"/>
<circle cx="848.92" cy="649.25" r="45" fill="#f2cc8f"/>
<circle cx="848.92" cy="346.6" r="45" fill="#f2cc8f"/>
<circle cx="449.22" cy="348.37" r="45" fill="#f2cc8f"/>
<circle cx="49" cy="348.51" r="45" fill="#f2cc8f"/>
<circle cx="848.92" cy="447.92" r="45" fill="#f2cc8f"/>
<circle cx="848.92" cy="248.51" r="45" fill="#f2cc8f"/>
<circle cx="648.75" cy="447.92" r="45" fill="#f2cc8f"/>
<circle cx="648.75" cy="348.37" r="45" fill="#f2cc8f"/>
<circle cx="549.07" cy="248.51" r="45" fill="#f2cc8f"/>
<circle cx="449.22" cy="447.92" r="45" fill="#f2cc8f"/>
<circle cx="149" cy="248.51" r="45" fill="#f2cc8f"/>
<circle cx="49" cy="447.92" r="45" fill="#f2cc8f"/>
<circle cx="249.07" cy="248.51" r="45" fill="#f2cc8f"/>
<circle cx="449.22" cy="248.51" r="45" fill="#f2cc8f"/>
<circle cx="449.22" cy="48" r="45" fill="#f2cc8f"/>
<circle cx="449.22" cy="147.47" r="45" fill="#f2cc8f"/>
</svg>
