<svg id="eZySuPIAhj71" xmlns="http://www.w3.org/2000/svg" xmlns:xlink="http://www.w3.org/1999/xlink" viewBox="0 0 1100 703" shape-rendering="geometricPrecision" text-rendering="geometricPrecision"><defs><filter id="eZySuPIAhj72-filter" x="-150%" width="400%" y="-150%" height="400%"><feGaussianBlur id="eZySuPIAhj72-filter-drop-shadow-0-blur" in="SourceAlpha" stdDeviation="2,4"/><feOffset id="eZySuPIAhj72-filter-drop-shadow-0-offset" dx="0" dy="4" result="tmp"/><feFlood id="eZySuPIAhj72-filter-drop-shadow-0-flood" flood-color="#1b1d28"/><feComposite id="eZySuPIAhj72-filter-drop-shadow-0-composite" operator="in" in2="tmp"/><feMerge id="eZySuPIAhj72-filter-drop-shadow-0-merge" result="result"><feMergeNode id="eZySuPIAhj72-filter-drop-shadow-0-merge-node-1"/><feMergeNode id="eZySuPIAhj72-filter-drop-shadow-0-merge-node-2" in="SourceGraphic"/></feMerge></filter></defs><g transform="translate(-50.458221-251.375336)" filter="url(#eZySuPIAhj72-filter)"><ellipse rx="45" ry="45" transform="translate(999.251259 699.292287)" fill="#f2cc8f" stroke-width="0"/><ellipse rx="45" ry="45" transform="translate(1100.541778 597.970957)" fill="#f2cc8f" stroke-width="0"/><ellipse rx="45" ry="45" transform="translate(999.251259 499.883575)" fill="#f2cc8f" stroke-width="0"/><ellipse rx="45" ry="45" transform="translate(899.374063 799.645782)" fill="#f2cc8f" stroke-width="0"/><ellipse rx="45" ry="45" transform="translate(899.374063 900.624664)" fill="#f2cc8f" stroke-width="0"/><ellipse rx="45" ry="45" transform="translate(899.374063 597.970957)" fill="#f2cc8f" stroke-width="0"/><ellipse rx="45" ry="45" transform="translate(499.68268 599.742451)" fill="#f2cc8f" stroke-width="0"/><ellipse rx="45" ry="45" transform="translate(99.458222 599.883576)" fill="#f2cc8f" stroke-width="0"/><ellipse rx="45" ry="45" transform="translate(899.374063 699.292287)" fill="#f2cc8f" stroke-width="0"/><ellipse rx="45" ry="45" transform="translate(899.374063 499.883575)" fill="#f2cc8f" stroke-width="0"/><ellipse rx="45" ry="45" transform="translate(699.207175 699.292287)" fill="#f2cc8f" stroke-width="0"/><ellipse rx="45" ry="45" transform="translate(699.207175 599.742451)" fill="#f2cc8f" stroke-width="0"/><ellipse rx="45" ry="45" transform="translate(599.529382 499.883575)" fill="#f2cc8f" stroke-width="0"/><ellipse rx="45" ry="45" transform="translate(499.68268 699.292287)" fill="#f2cc8f" stroke-width="0"/><ellipse rx="45" ry="45" transform="translate(199.458222 499.883575)" fill="#f2cc8f" stroke-width="0"/><ellipse rx="45" ry="45" transform="translate(99.458222 699.292287)" fill="#f2cc8f" stroke-width="0"/><ellipse rx="45" ry="45" transform="translate(299.528785 499.883575)" fill="#f2cc8f" stroke-width="0"/><ellipse rx="45" ry="45" transform="translate(499.68268 499.883575)" fill="#f2cc8f" stroke-width="0"/><ellipse rx="45" ry="45" transform="translate(499.68268 299.375336)" fill="#f2cc8f" stroke-width="0"/><ellipse rx="45" ry="45" transform="translate(499.68268 398.848839)" fill="#f2cc8f" stroke-width="0"/></g></svg>
